<svg xmlns="http://www.w3.org/2000/svg" xmlns:xlink="http://www.w3.org/1999/xlink" viewBox="0 0 499.99999 500.001"><defs><style>.cls-1{isolation:isolate;}.cls-10,.cls-11,.cls-13,.cls-14,.cls-2,.cls-3,.cls-4,.cls-6,.cls-7,.cls-9{mix-blend-mode:screen;}.cls-2{fill:url(#linear-gradient);}.cls-3{fill:url(#linear-gradient-2);}.cls-4{fill:url(#linear-gradient-3);}.cls-12,.cls-15,.cls-5,.cls-8{mix-blend-mode:multiply;opacity:0.37;}.cls-5{fill:url(#linear-gradient-4);}.cls-6,.cls-8{fill:url(#linear-gradient-6);}.cls-7{fill:url(#linear-gradient-7);}.cls-9{fill:url(#linear-gradient-10);}.cls-10{fill:url(#linear-gradient-11);}.cls-11{fill:url(#linear-gradient-12);}.cls-12{fill:url(#linear-gradient-13);}.cls-13,.cls-15{fill:url(#linear-gradient-15);}.cls-14{fill:url(#linear-gradient-16);}</style><linearGradient id="linear-gradient" x1="106.19845" y1="292.13443" x2="388.06449" y2="292.13443" gradientTransform="matrix(1, 0, 0, -1, 111.9355, 523.3679)" gradientUnits="userSpaceOnUse"><stop offset="0" stop-color="#7056a3"/><stop offset="1" stop-color="#3e1f5f"/></linearGradient><linearGradient id="linear-gradient-2" x1="106.19845" y1="244.83396" x2="388.06449" y2="244.83396" xlink:href="#linear-gradient"/><linearGradient id="linear-gradient-3" x1="106.19845" y1="244.83396" x2="388.06449" y2="244.83396" gradientTransform="matrix(1, 0, 0, -1, 111.9355, 523.3679)" gradientUnits="userSpaceOnUse"><stop offset="0" stop-color="#3e1f5f"/><stop offset="0.01993" stop-color="#381c56"/><stop offset="0.09022" stop-color="#27133b"/><stop offset="0.17095" stop-color="#180c25"/><stop offset="0.26524" stop-color="#0d0714"/><stop offset="0.38194" stop-color="#060309"/><stop offset="0.5456" stop-color="#010102"/><stop offset="1"/></linearGradient><linearGradient id="linear-gradient-4" x1="222.90738" y1="303.18844" x2="388.06449" y2="303.18844" xlink:href="#linear-gradient"/><linearGradient id="linear-gradient-6" x1="150.41418" y1="361.54291" x2="388.06449" y2="361.54291" xlink:href="#linear-gradient"/><linearGradient id="linear-gradient-7" x1="150.41418" y1="361.54291" x2="388.06449" y2="361.54291" gradientTransform="matrix(1, 0, 0, -1, 111.9355, 523.3679)" gradientUnits="userSpaceOnUse"><stop offset="0" stop-color="#7056a3"/><stop offset="0.01899" stop-color="#6c529e"/><stop offset="0.12137" stop-color="#5b3f87"/><stop offset="0.23952" stop-color="#4e3175"/><stop offset="0.38122" stop-color="#452768"/><stop offset="0.57015" stop-color="#402161"/><stop offset="1" stop-color="#3e1f5f"/></linearGradient><linearGradient id="linear-gradient-10" x1="158.31585" y1="302.08363" x2="440.1819" y2="302.08363" gradientTransform="matrix(-1, 0, 0, 1, 440.1819, -33.3161)" xlink:href="#linear-gradient"/><linearGradient id="linear-gradient-11" x1="158.31585" y1="254.78316" x2="440.1819" y2="254.78316" gradientTransform="matrix(-1, 0, 0, 1, 440.1819, -33.3161)" xlink:href="#linear-gradient"/><linearGradient id="linear-gradient-12" x1="158.31585" y1="254.78316" x2="440.1819" y2="254.78316" gradientTransform="matrix(-1, 0, 0, 1, 440.1819, -33.3161)" xlink:href="#linear-gradient-3"/><linearGradient id="linear-gradient-13" x1="275.0248" y1="313.13764" x2="440.1819" y2="313.13764" gradientTransform="matrix(-1, 0, 0, 1, 440.1819, -33.3161)" xlink:href="#linear-gradient"/><linearGradient id="linear-gradient-15" x1="202.53189" y1="371.49211" x2="440.1819" y2="371.49211" gradientTransform="matrix(-1, 0, 0, 1, 440.1819, -33.3161)" xlink:href="#linear-gradient"/><linearGradient id="linear-gradient-16" x1="202.53189" y1="371.49211" x2="440.1819" y2="371.49211" gradientTransform="matrix(-1, 0, 0, 1, 440.1819, -33.3161)" xlink:href="#linear-gradient-7"/></defs><g class="cls-1"><g id="OBJECTS"><polygon class="cls-2" points="356.951 209.125 262.35 114.525 405.399 114.525 500 209.125 361.183 347.942 218.134 347.942 356.951 209.125"/><polygon class="cls-3" points="500 209.125 356.951 209.125 218.134 347.942 500 209.125"/><polygon class="cls-4" points="500 209.125 356.951 209.125 218.134 347.942 500 209.125"/><polygon class="cls-5" points="500 209.125 356.951 209.125 334.843 231.233 500 209.125"/><polygon class="cls-3" points="500 209.125 346.818 278.534 218.134 347.942 500 209.125"/><polygon class="cls-6" points="500 209.125 405.399 114.525 262.35 114.525 500 209.125"/><polygon class="cls-7" points="500 209.125 405.399 114.525 262.35 114.525 500 209.125"/><polygon class="cls-8" points="500 209.125 356.951 209.125 262.35 114.525 500 209.125"/><polygon class="cls-6" points="500 209.125 381.175 156.491 262.35 114.525 500 209.125"/><polygon class="cls-9" points="143.049 290.876 237.65 385.476 94.601 385.476 0 290.876 138.817 152.059 281.866 152.059 143.049 290.876"/><polygon class="cls-10" points="0 290.876 143.049 290.876 281.866 152.059 0 290.876"/><polygon class="cls-11" points="0 290.876 143.049 290.876 281.866 152.059 0 290.876"/><polygon class="cls-12" points="0 290.876 143.049 290.876 165.157 268.768 0 290.876"/><polygon class="cls-10" points="0 290.876 153.182 221.467 281.866 152.059 0 290.876"/><polygon class="cls-13" points="0 290.876 94.601 385.476 237.65 385.476 0 290.876"/><polygon class="cls-14" points="0 290.876 94.601 385.476 237.65 385.476 0 290.876"/><polygon class="cls-15" points="0 290.876 143.049 290.876 237.65 385.476 0 290.876"/><polygon class="cls-13" points="0 290.876 118.825 343.51 237.65 385.476 0 290.876"/></g></g></svg>