<svg id="OBJECTS" xmlns="http://www.w3.org/2000/svg" xmlns:xlink="http://www.w3.org/1999/xlink" viewBox="0 0 499.99999 500.001"><defs><style>.cls-1{fill:#fff;}.cls-2{fill:url(#linear-gradient);}.cls-3{fill:url(#linear-gradient-2);}.cls-4{fill:url(#linear-gradient-3);}.cls-5{fill:url(#linear-gradient-4);}.cls-6{fill:url(#linear-gradient-5);}.cls-7{fill:url(#linear-gradient-6);}</style><linearGradient id="linear-gradient" x1="352.71627" y1="254.77477" x2="154.1442" y2="254.77477" gradientUnits="userSpaceOnUse"><stop offset="0" stop-color="#6e57e0"/><stop offset="1"/></linearGradient><linearGradient id="linear-gradient-2" x1="117.22963" y1="239.46621" x2="82.2556" y2="373.18996" xlink:href="#linear-gradient"/><linearGradient id="linear-gradient-3" x1="337.33436" y1="402.27368" x2="337.33436" y2="298.89474" xlink:href="#linear-gradient"/><linearGradient id="linear-gradient-4" x1="208.70439" y1="115.19754" x2="97.61056" y2="192.34594" xlink:href="#linear-gradient"/><linearGradient id="linear-gradient-5" x1="162.16482" y1="348.50893" x2="257.54031" y2="503.29854" xlink:href="#linear-gradient"/><linearGradient id="linear-gradient-6" x1="362.40478" y1="161.73692" x2="190.18778" y2="57.60571" xlink:href="#linear-gradient"/></defs><path class="cls-1" d="M67.78929,94.40753l138.56862-80.0026a87.28413,87.28413,0,0,1,87.28416,0l138.56862,80.0026a87.284,87.284,0,0,1,43.64217,75.59029V330.003a87.2843,87.2843,0,0,1-43.64217,75.59047l-138.56862,80.0026a87.28413,87.28413,0,0,1-87.28416,0L67.78929,405.59347A87.2843,87.2843,0,0,1,24.14712,330.003V169.99782A87.284,87.284,0,0,1,67.78929,94.40753Z"/><path class="cls-1" d="M410.24157,140.751l-52.09663-30.07872a9.44976,9.44976,0,0,0-1.36821-.63893l-92.3498-53.31824a28.859,28.859,0,0,0-28.85434,0L143.223,110.03332a9.44144,9.44144,0,0,0-1.36845.63893L89.75842,140.75074a28.85516,28.85516,0,0,0-14.42729,24.98919V334.261A28.85273,28.85273,0,0,0,89.757,359.24807l52.09754,30.07919a9.32127,9.32127,0,0,0,1.36845.63892l92.34956,53.31824a28.85449,28.85449,0,0,0,28.85434,0l92.3498-53.31824a9.32935,9.32935,0,0,0,1.36821-.63892l52.09778-30.07942A28.85286,28.85286,0,0,0,424.66885,334.261V252.39331a37.88113,37.88113,0,0,0-37.88116-37.88116H240.07943V245.7332A39.75556,39.75556,0,0,0,279.835,285.48874h64.49349v9.44009a16.37576,16.37576,0,0,1-8.18782,14.182l-77.95271,45.00687a16.37553,16.37553,0,0,1-16.37611,0l-77.9527-45.00687a16.37551,16.37551,0,0,1-8.18806-14.182V205.07044a16.37627,16.37627,0,0,1,8.18806-14.182l77.9527-45.00526a16.37614,16.37614,0,0,1,16.37611.00023l55.05179,31.78392a27.13284,27.13284,0,0,0,13.56593,3.63488h82.45148a15.41167,15.41167,0,0,0,15.41172-15.41149h0v-.15075A28.855,28.855,0,0,0,410.24157,140.751Z"/><path class="cls-2" d="M386.78746,214.51215h-146.708V245.7332a39.75537,39.75537,0,0,0,39.75531,39.75554h64.49372v9.44009l-.00714.10856h80.34753V252.39331A37.88133,37.88133,0,0,0,386.78746,214.51215Z"/><path class="cls-3" d="M155.67106,294.92883V205.07067a16.37916,16.37916,0,0,1,8.18806-14.18227l5.69227-3.28615-47.61491-65.43L89.75773,140.751a28.856,28.856,0,0,0-14.4266,24.989V334.261a28.84432,28.84432,0,0,0,8.53518,20.47221l77.72337-47.239A16.35488,16.35488,0,0,1,155.67106,294.92883Z"/><path class="cls-4" d="M424.66885,334.261V285.48874H344.32846v9.44009a16.37513,16.37513,0,0,1-8.18782,14.182l-77.95271,45.00687a16.36964,16.36964,0,0,1-8.18805,2.19384V447.151a28.834,28.834,0,0,0,14.42705-3.86653l92.3498-53.31824a9.32935,9.32935,0,0,0,1.36821-.63892l52.09686-30.079A28.85161,28.85161,0,0,0,424.66885,334.261Z"/><path class="cls-5" d="M156.96551,198.70352h.00024a16.375,16.375,0,0,1,6.89337-7.81512l77.9527-45.00526a16.36345,16.36345,0,0,1,8.18806-2.19453V52.85016a28.84084,28.84084,0,0,0-14.42729,3.86492L143.223,110.03332a9.44144,9.44144,0,0,0-1.36845.63893L89.75773,140.751A28.81057,28.81057,0,0,0,79.4519,150.93026Z"/><path class="cls-6" d="M241.81182,354.11774l-77.9527-45.00687a16.365,16.365,0,0,1-5.98846-5.98569h-.00023l-79.57376,43.741A28.77933,28.77933,0,0,0,89.75773,359.2483l52.09685,30.079a9.32127,9.32127,0,0,0,1.36845.63892l92.34956,53.31824a28.83552,28.83552,0,0,0,14.42729,3.86653V356.31158A16.36968,16.36968,0,0,1,241.81182,354.11774Z"/><path class="cls-7" d="M258.18793,145.88314l55.05179,31.78415a27.13284,27.13284,0,0,0,13.56593,3.63488h82.45148a15.41167,15.41167,0,0,0,15.41172-15.41149h0v-.15075a28.855,28.855,0,0,0-14.42728-24.989l-52.09663-30.07872a9.44976,9.44976,0,0,0-1.36821-.63893l-92.3498-53.31824a28.83934,28.83934,0,0,0-14.42705-3.86492v90.83845A16.36342,16.36342,0,0,1,258.18793,145.88314Z"/></svg>