<svg id="Layer_1" data-name="Layer 1" xmlns="http://www.w3.org/2000/svg" xmlns:xlink="http://www.w3.org/1999/xlink" viewBox="0 0 32 32"><defs><style>.cls-1{fill:#fff;}.cls-2{fill:url(#linear-gradient);}.cls-3{fill:url(#linear-gradient-2);}.cls-4{fill:url(#linear-gradient-3);}.cls-5{fill:url(#linear-gradient-4);}.cls-6{fill:url(#linear-gradient-5);}.cls-7{fill:url(#linear-gradient-6);}</style><linearGradient id="linear-gradient" x1="22.63877" y1="16.30857" x2="9.80464" y2="16.30857" gradientUnits="userSpaceOnUse"><stop offset="0" stop-color="#6e57e0"/><stop offset="1"/></linearGradient><linearGradient id="linear-gradient-2" x1="7.41877" y1="15.31915" x2="5.15832" y2="23.962" xlink:href="#linear-gradient"/><linearGradient id="linear-gradient-3" x1="21.64461" y1="25.84174" x2="21.64461" y2="19.16014" xlink:href="#linear-gradient"/><linearGradient id="linear-gradient-4" x1="13.33098" y1="7.2874" x2="6.15075" y2="12.27366" xlink:href="#linear-gradient"/><linearGradient id="linear-gradient-5" x1="10.32303" y1="22.36681" x2="16.48735" y2="32.37119" xlink:href="#linear-gradient"/><linearGradient id="linear-gradient-6" x1="23.26496" y1="10.29534" x2="12.13421" y2="3.56512" xlink:href="#linear-gradient"/></defs><path class="cls-1" d="M4.22334,5.9437,13.17932.773a5.64137,5.64137,0,0,1,5.64136,0l8.956,5.17074a5.64134,5.64134,0,0,1,2.82069,4.88556V21.17073a5.64136,5.64136,0,0,1-2.82069,4.88557l-8.956,5.17074a5.64137,5.64137,0,0,1-5.64136,0l-8.956-5.17074a5.64136,5.64136,0,0,1-2.82069-4.88557V10.82926A5.64134,5.64134,0,0,1,4.22334,5.9437Z"/><path class="cls-1" d="M26.35675,8.939l-3.36711-1.944a.6116.6116,0,0,0-.08843-.0413L16.93244,3.50755a1.86522,1.86522,0,0,0-1.86491,0L9.09878,6.95362a.61082.61082,0,0,0-.08845.0413L5.64325,8.939a1.865,1.865,0,0,0-.93247,1.6151V21.44593a1.86481,1.86481,0,0,0,.93238,1.615L9.01033,25.005a.60246.60246,0,0,0,.08845.0413l5.96875,3.44607a1.86493,1.86493,0,0,0,1.86491,0l5.96877-3.44607a.60321.60321,0,0,0,.08843-.0413l3.36719-1.94409a1.86485,1.86485,0,0,0,.93239-1.615V16.15465a2.44834,2.44834,0,0,0-2.44834-2.44834H15.35881V15.7242a2.56949,2.56949,0,0,0,2.56949,2.56948h4.16835v.61013a1.05841,1.05841,0,0,1-.5292.91662L16.5292,22.72932a1.05841,1.05841,0,0,1-1.05842,0l-5.03825-2.90889a1.0584,1.0584,0,0,1-.52921-.91662V13.09608a1.05845,1.05845,0,0,1,.52921-.91662l5.03825-2.90879a1.05841,1.05841,0,0,1,1.05842,0L20.08732,11.325a1.75356,1.75356,0,0,0,.87679.23493h5.329a.99609.99609,0,0,0,.99609-.99608h0v-.00974A1.865,1.865,0,0,0,26.35675,8.939Z"/><path class="cls-2" d="M24.84086,13.70631h-9.482V15.7242a2.56948,2.56948,0,0,0,2.56947,2.56948h4.16837v.61013l-.00046.007h5.193V16.15465A2.44835,2.44835,0,0,0,24.84086,13.70631Z"/><path class="cls-3" d="M9.90332,18.90381V13.09609a1.05863,1.05863,0,0,1,.52921-.91663l.36791-.21239L7.723,7.73819,5.6432,8.939a1.865,1.865,0,0,0-.93242,1.61509V21.44593a1.86425,1.86425,0,0,0,.55165,1.32316l5.02342-3.05315A1.05706,1.05706,0,0,1,9.90332,18.90381Z"/><path class="cls-4" d="M27.28922,21.44593V18.29368H22.09665v.61013a1.05836,1.05836,0,0,1-.5292.91662L16.5292,22.72932A1.058,1.058,0,0,1,16,22.87111v5.87114a1.8636,1.8636,0,0,0,.93245-.2499l5.96877-3.44607a.60321.60321,0,0,0,.08843-.0413l3.36713-1.94406A1.86475,1.86475,0,0,0,27.28922,21.44593Z"/><path class="cls-5" d="M9.987,12.68457h0a1.05837,1.05837,0,0,1,.44553-.50511l5.03825-2.90879A1.05763,1.05763,0,0,1,16,9.12884V3.25776a1.86408,1.86408,0,0,0-.93246.24979L9.09878,6.95362a.61082.61082,0,0,0-.08845.0413L5.6432,8.939a1.86214,1.86214,0,0,0-.66608.65791Z"/><path class="cls-6" d="M15.47078,22.72932l-5.03825-2.90889a1.05765,1.05765,0,0,1-.387-.38687h0l-5.143,2.82707a1.86012,1.86012,0,0,0,.74075.80029L9.01033,25.005a.60246.60246,0,0,0,.08845.0413l5.96875,3.44607A1.86369,1.86369,0,0,0,16,28.74225V22.87111A1.058,1.058,0,0,1,15.47078,22.72932Z"/><path class="cls-7" d="M16.5292,9.27067,20.08732,11.325a1.75356,1.75356,0,0,0,.87679.23493h5.329a.99609.99609,0,0,0,.99609-.99608h0v-.00974A1.865,1.865,0,0,0,26.35675,8.939l-3.36711-1.944a.6116.6116,0,0,0-.08843-.0413L16.93244,3.50755A1.864,1.864,0,0,0,16,3.25776V9.12884A1.0576,1.0576,0,0,1,16.5292,9.27067Z"/></svg>